<?xml version="1.0" standalone="no"?>
<!DOCTYPE svg PUBLIC "-//W3C//DTD SVG 20010904//EN"
 "http://www.w3.org/TR/2001/REC-SVG-20010904/DTD/svg10.dtd">
<svg version="1.0" xmlns="http://www.w3.org/2000/svg"
 width="512.000000pt" height="512.000000pt" viewBox="0 0 512.000000 512.000000"
 preserveAspectRatio="xMidYMid meet">
<metadata>
Created by potrace 1.16, written by Peter Selinger 2001-2019
</metadata>
<g transform="translate(0.000000,512.000000) scale(0.100000,-0.100000)"
fill="#000000" stroke="none">
<path d="M2370 5106 c-143 -33 -270 -92 -385 -179 -44 -33 -93 -59 -130 -71
-362 -110 -685 -301 -959 -566 -146 -142 -221 -231 -330 -393 -218 -324 -358
-715 -397 -1113 -16 -160 -6 -454 20 -609 21 -126 57 -272 89 -365 l19 -55
-117 -235 c-153 -305 -171 -362 -178 -546 -3 -109 -1 -160 13 -225 77 -382
367 -667 752 -740 104 -19 320 -7 426 25 154 46 285 123 396 233 l64 64 136
-45 c284 -94 452 -121 771 -121 319 0 511 31 787 126 l115 40 68 -65 c122
-115 246 -187 397 -232 108 -32 301 -43 419 -24 279 44 529 223 663 471 80
148 111 274 111 449 0 259 -84 466 -266 659 l-64 68 49 149 c27 82 59 195 70
251 83 404 63 839 -56 1216 -55 175 -69 204 -109 217 -29 10 -38 9 -63 -9 -43
-31 -45 -58 -10 -153 147 -399 173 -896 68 -1311 -29 -115 -69 -237 -77 -237
-4 0 -63 56 -131 124 l-123 124 22 93 c135 575 -5 1189 -377 1649 -127 157
-329 333 -494 431 -66 39 -68 42 -74 87 -14 111 -49 229 -92 315 -14 28 -19
47 -12 47 22 0 274 -127 366 -183 273 -170 520 -414 700 -692 73 -112 94 -128
150 -113 24 6 34 17 43 42 13 42 6 57 -83 191 -183 274 -437 521 -723 702
-155 99 -417 217 -584 264 -25 7 -76 37 -115 67 -82 63 -243 143 -335 167 -84
23 -351 30 -430 11z m398 -166 c217 -61 403 -219 496 -422 61 -131 68 -173 75
-481 6 -277 6 -279 30 -298 28 -22 69 -25 97 -5 17 13 20 31 24 170 l5 155 95
-67 c111 -79 302 -264 383 -374 230 -310 350 -672 350 -1058 0 -147 -25 -374
-42 -385 -4 -2 -31 8 -61 23 -104 51 -252 28 -330 -53 l-33 -34 -42 34 c-91
75 -202 89 -296 38 -49 -26 -101 -82 -114 -122 -4 -13 -19 -16 -82 -16 -84 0
-124 -15 -176 -64 -64 -58 -91 -165 -66 -251 7 -25 13 -48 14 -52 0 -4 -19
-20 -42 -37 -62 -45 -95 -108 -101 -192 l-5 -70 -43 -21 c-82 -38 -134 -124
-134 -223 0 -82 26 -132 111 -220 39 -40 67 -75 62 -78 -4 -3 -57 -13 -118
-23 -142 -22 -382 -22 -525 0 -96 15 -256 53 -315 76 l-24 9 34 68 c61 120 68
213 24 326 -11 29 -30 65 -43 81 l-24 29 213 242 c118 134 223 262 236 286 29
58 30 147 2 210 -44 99 -148 158 -254 146 -94 -11 -129 -40 -343 -284 -59 -68
-109 -123 -112 -123 -2 0 38 85 90 188 56 112 97 207 101 234 15 99 -49 218
-140 259 -87 40 -233 14 -291 -52 -12 -13 -55 -88 -96 -167 -72 -137 -75 -142
-92 -123 -10 11 -41 29 -69 41 -84 37 -198 18 -264 -42 l-22 -21 -29 24 c-16
13 -37 29 -46 34 -42 25 -53 393 -17 595 85 484 354 904 749 1169 l62 42 0
-245 c0 -223 2 -250 21 -300 40 -109 159 -204 276 -222 l43 -6 0 -185 c0 -209
7 -244 59 -304 62 -73 168 -106 257 -80 29 8 32 7 43 -26 32 -87 132 -153 231
-153 99 0 199 66 231 153 11 33 14 34 43 26 54 -16 119 -10 172 15 56 26 120
93 129 138 6 24 10 28 28 21 12 -4 51 -8 87 -7 74 0 126 22 177 76 58 60 63
85 63 317 l0 210 -26 20 c-31 24 -66 20 -101 -12 -21 -18 -22 -28 -25 -214
l-3 -195 -28 -24 c-42 -36 -98 -33 -131 7 l-26 31 0 262 c0 251 -1 265 -21
290 -26 33 -79 36 -109 6 -19 -19 -20 -33 -20 -365 0 -368 -3 -390 -49 -415
-31 -16 -87 -12 -112 9 l-24 19 -5 365 c-5 341 -6 366 -24 386 -23 26 -81 28
-108 4 -17 -15 -18 -43 -19 -442 0 -303 -4 -436 -12 -461 -9 -25 -23 -40 -50
-53 -36 -18 -38 -18 -75 0 -26 13 -40 28 -49 53 -8 25 -12 158 -12 459 -1 380
-3 426 -18 443 -23 26 -84 24 -109 -3 -18 -20 -19 -45 -24 -386 l-5 -365 -24
-19 c-34 -27 -93 -25 -128 5 l-28 24 -5 572 c-5 551 -6 572 -24 586 -33 23
-82 18 -105 -12 -20 -26 -21 -38 -21 -320 0 -289 0 -294 -20 -294 -32 0 -95
36 -123 70 -46 54 -49 87 -45 459 5 390 10 419 88 571 115 219 332 373 585
414 64 10 241 -3 313 -24z m-1053 -363 c-35 -75 -68 -195 -80 -284 -7 -51 -7
-52 -75 -92 -171 -102 -379 -285 -505 -446 -230 -294 -362 -615 -406 -990 -11
-97 -7 -424 6 -470 5 -16 -4 -25 -50 -49 -64 -33 -89 -66 -154 -198 -24 -49
-46 -88 -50 -88 -5 0 -18 44 -30 98 -115 511 -53 1036 176 1497 113 226 243
406 422 586 138 138 219 205 362 299 90 60 380 210 406 210 7 0 -1 -28 -22
-73z m-7 -2182 c12 -14 22 -39 22 -56 0 -18 -64 -157 -166 -361 -151 -301
-166 -336 -161 -372 4 -26 16 -50 36 -70 27 -26 39 -31 80 -31 35 0 55 6 71
20 13 11 120 130 238 265 305 347 298 340 348 340 35 0 47 -5 68 -31 31 -36
33 -73 7 -114 -11 -16 -113 -136 -228 -265 -208 -234 -209 -235 -257 -242 -29
-4 -58 -16 -73 -30 -30 -28 -303 -568 -303 -600 0 -59 86 -90 127 -46 12 13
78 137 147 276 120 239 127 251 146 240 41 -26 74 -87 78 -146 4 -57 3 -60
-147 -359 -114 -229 -165 -319 -210 -375 -99 -123 -239 -214 -398 -260 -63
-18 -102 -23 -203 -22 -148 0 -215 16 -345 79 -158 77 -273 192 -350 350 -64
131 -79 197 -79 345 0 166 18 229 139 471 l96 191 35 -27 c52 -40 117 -59 180
-52 40 4 54 2 54 -7 0 -24 83 -108 125 -127 92 -42 231 -11 288 64 13 18 129
240 257 495 177 351 240 467 259 478 36 20 91 10 119 -21z m-953 -279 c39 -16
55 -42 55 -85 0 -37 -137 -317 -170 -346 -34 -31 -96 -27 -126 8 -39 46 -32
81 50 245 74 148 94 176 131 185 11 2 21 5 23 6 1 0 18 -5 37 -13z m397 -7
c11 -6 26 -27 35 -47 l15 -36 -119 -239 c-66 -135 -128 -247 -142 -258 -36
-29 -87 -25 -122 10 -17 17 -29 40 -29 55 0 34 234 501 257 515 24 14 79 14
105 0z m2995 -50 c30 -11 466 -438 597 -585 96 -108 140 -178 178 -285 144
-409 -72 -855 -483 -994 -109 -37 -239 -51 -344 -36 -233 32 -370 119 -637
401 l-117 125 48 42 c27 23 58 61 69 83 l20 41 64 3 c76 3 129 28 181 85 20
22 41 59 48 83 6 24 13 48 14 55 2 6 19 14 37 18 113 25 195 119 205 237 5 46
9 58 23 58 21 0 88 43 113 72 17 21 18 20 86 -46 52 -49 76 -66 97 -66 38 0
74 36 74 75 0 27 -20 51 -147 177 -82 80 -157 148 -168 151 -59 15 -79 16
-122 5 -42 -10 -66 -29 -183 -143 -146 -143 -162 -155 -210 -155 -33 0 -96 25
-106 42 -8 13 510 533 551 553 36 17 73 19 112 4z m-433 -39 l31 -30 -65 -65
c-35 -36 -68 -65 -72 -65 -4 0 -19 16 -33 35 -39 50 -37 100 5 138 27 24 39
28 68 23 21 -3 49 -18 66 -36z m-280 -200 l71 -69 -68 -68 -68 -68 -69 71
c-64 65 -70 75 -70 113 0 58 33 91 91 91 38 0 48 -6 113 -70z m-184 -306 c37
-25 317 -303 351 -348 56 -75 23 -156 -63 -156 -42 0 -45 3 -235 193 -186 186
-193 194 -193 232 0 22 6 47 13 56 31 40 86 50 127 23z m604 -116 c9 -12 16
-40 16 -61 0 -86 -95 -118 -165 -56 l-36 32 53 29 c29 16 64 40 78 53 30 31
35 31 54 3z m-662 -305 c139 -139 153 -164 124 -222 -18 -33 -62 -51 -106 -43
-24 5 -223 190 -262 245 -31 44 -27 95 12 130 57 51 83 38 232 -110z m-1246
-354 c319 -110 712 -129 1053 -49 l93 22 124 -123 c68 -68 124 -127 124 -131
0 -16 -275 -91 -431 -117 -210 -35 -519 -32 -745 9 -113 20 -318 76 -386 104
l-38 16 72 145 c40 80 73 145 74 145 0 0 27 -9 60 -21z"/>
</g>
</svg>
